<svg xmlns="http://www.w3.org/2000/svg" xmlns:xlink="http://www.w3.org/1999/xlink" preserveAspectRatio="xMidYMid" width="107" height="107" viewBox="0 0 107 107">
  <defs>
    <style>
      .cls-1 {
        fill: #f8863d;
      }

      .cls-2 {
        fill: #dc783b;
      }

      .cls-2, .cls-3 {
        fill-rule: evenodd;
      }

      .cls-3 {
        fill: #fff;
      }
    </style>
  </defs>
  <circle cx="53.5" cy="53.5" r="53.5" class="cls-1"/>
  <path d="M52.701,9.582 C52.701,9.582 9.582,13.599 9.582,54.299 C9.582,93.309 52.701,98.216 52.701,98.216 " class="cls-2"/>
  <path d="M65.934,44.175 L65.934,38.318 L71.866,38.318 L71.866,44.175 L65.934,44.175 ZM71.781,69.481 L65.849,69.481 L65.849,46.893 L71.781,46.893 L71.781,69.481 ZM53.653,63.333 L42.086,63.333 L40.010,69.481 L33.527,69.481 L44.501,38.988 L51.535,38.988 L62.212,69.481 L55.687,69.481 L53.653,63.333 ZM47.891,46.182 L43.865,58.104 L51.916,58.104 L47.891,46.182 Z" class="cls-3"/>
</svg>
