<svg xmlns="http://www.w3.org/2000/svg" xmlns:xlink="http://www.w3.org/1999/xlink" preserveAspectRatio="xMidYMid" width="79" height="79" viewBox="0 0 79 79">
  <defs>
    <style>
      .cls-1 {
        fill: #f8863d;
      }

      .cls-2 {
        fill: #d26e2e;
      }

      .cls-2, .cls-3 {
        fill-rule: evenodd;
      }

      .cls-3 {
        fill: #fff;
      }
    </style>
  </defs>
  <circle cx="39.5" cy="39.5" r="39.5" class="cls-1"/>
  <path d="M35.000,20.000 L77.000,51.000 C77.000,51.000 74.889,59.599 69.000,66.000 C63.396,72.091 54.000,76.000 54.000,76.000 L27.000,57.000 L32.000,40.000 L46.000,38.000 L35.000,20.000 Z" class="cls-2"/>
  <path d="M33.537,18.000 C35.542,18.262 36.819,19.537 38.135,20.484 C42.884,23.903 44.209,28.845 44.074,36.538 C44.138,36.538 44.202,36.538 44.266,36.538 C45.097,35.186 46.518,34.139 47.139,32.524 C47.331,31.378 47.522,30.231 47.714,29.084 C48.672,29.976 49.630,30.868 50.588,31.760 C51.884,33.524 53.093,35.634 53.844,37.876 C56.046,44.441 54.844,51.915 51.737,56.413 C50.893,57.635 46.068,60.797 45.223,61.000 C45.223,60.936 45.223,60.873 45.223,60.809 C46.917,59.542 46.933,54.993 45.990,52.782 C45.583,51.829 44.999,50.760 44.074,49.724 C39.312,47.315 39.129,43.470 39.476,42.080 C39.789,40.825 40.490,39.762 40.817,38.640 C40.725,38.640 40.526,38.385 38.901,39.404 C38.008,40.233 37.113,41.061 36.219,41.889 C34.237,44.635 31.231,51.480 32.771,56.413 C33.338,58.230 34.368,59.591 35.262,61.000 C34.942,61.000 34.623,61.000 34.304,61.000 C33.282,60.682 32.260,60.363 31.238,60.044 C29.541,59.297 27.617,57.710 26.641,56.222 C24.493,52.950 24.616,46.643 26.257,42.844 C29.386,35.604 38.400,28.456 33.537,18.000 Z" class="cls-3"/>
</svg>
