<svg xmlns="http://www.w3.org/2000/svg" xmlns:xlink="http://www.w3.org/1999/xlink" preserveAspectRatio="xMidYMid" width="39" height="39" viewBox="0 0 39 39">
  <defs>
    <style>
      .cls-1 {
        fill: #fff;
        fill-rule: evenodd;
      }
    </style>
  </defs>
  <path d="M19.500,39.000 C8.730,39.000 -0.000,30.270 -0.000,19.500 C-0.000,8.730 8.730,-0.000 19.500,-0.000 C30.270,-0.000 39.000,8.730 39.000,19.500 C39.000,30.270 30.270,39.000 19.500,39.000 ZM22.473,9.755 C20.336,9.058 17.901,9.496 17.771,9.538 C15.910,8.813 12.189,7.294 9.544,11.492 C7.518,14.707 9.610,17.665 9.544,17.501 C9.486,18.509 8.279,22.695 12.335,26.695 C14.934,29.017 17.335,29.392 21.591,29.591 C22.181,30.048 25.231,31.039 27.542,29.446 C31.662,26.608 29.711,21.546 29.746,21.628 C30.667,15.195 27.212,11.300 22.473,9.755 ZM24.971,20.107 C25.604,21.969 25.148,23.455 25.000,24.000 C22.670,28.138 14.310,27.764 14.000,22.000 C13.970,21.576 14.697,20.573 15.714,21.338 C16.439,22.123 16.570,24.061 18.947,24.306 C20.366,24.453 21.672,23.874 22.179,23.220 C24.155,20.261 19.633,20.703 16.000,19.000 C13.920,18.025 13.902,14.849 15.274,13.592 C15.874,13.041 20.665,10.535 24.236,14.171 C24.575,14.516 25.410,15.694 24.824,16.415 C23.754,17.777 21.875,15.499 21.224,15.040 C20.558,14.569 18.886,14.452 17.992,14.823 C16.829,15.304 16.951,15.717 16.963,16.488 C19.037,18.378 23.824,17.852 24.971,20.107 Z" class="cls-1"/>
</svg>
