<svg xmlns="http://www.w3.org/2000/svg" xmlns:xlink="http://www.w3.org/1999/xlink" preserveAspectRatio="xMidYMid" width="79" height="79" viewBox="0 0 79 79">
  <defs>
    <style>
      .cls-1 {
        fill: #f8863d;
      }

      .cls-2 {
        fill: #d26e2e;
      }

      .cls-2, .cls-3 {
        fill-rule: evenodd;
      }

      .cls-3 {
        fill: #fff;
      }
    </style>
  </defs>
  <circle cx="39.5" cy="39.5" r="39.5" class="cls-1"/>
  <path d="M57.000,23.000 L78.000,44.000 C78.000,44.000 77.511,56.126 69.000,65.000 C61.936,73.282 49.000,78.000 49.000,78.000 L23.000,57.000 L23.000,23.000 L57.000,23.000 Z" class="cls-2"/>
  <path d="M46.707,21.340 C47.287,21.586 48.119,22.143 48.703,22.337 L52.133,21.900 C53.874,21.665 56.163,21.316 56.936,22.524 C57.582,23.533 57.082,25.842 56.936,27.136 C56.789,28.430 56.561,29.940 56.561,29.940 C56.672,30.323 57.089,31.025 57.247,31.374 C57.559,32.058 57.825,32.794 58.058,33.492 C59.877,38.936 58.560,43.560 57.996,45.645 C57.717,46.394 56.722,48.387 56.686,48.575 C56.566,49.200 57.040,51.412 57.060,51.628 C57.430,53.471 57.951,56.302 56.125,56.988 C55.069,57.168 53.644,57.026 52.383,56.926 C52.270,56.899 48.899,56.558 48.703,56.614 C44.259,58.436 40.639,60.354 32.425,57.674 C31.797,57.436 30.313,56.687 30.117,56.614 C29.922,56.541 24.078,58.046 22.446,56.926 C22.193,56.733 21.800,56.313 21.822,54.495 C21.996,52.366 22.321,48.699 22.321,48.699 C22.321,48.699 21.594,47.343 21.323,46.705 C18.621,39.857 20.634,33.480 22.259,30.314 C22.252,30.333 22.031,28.318 21.885,27.510 C21.686,26.602 21.141,23.657 21.760,22.773 C22.945,20.957 28.101,22.431 30.242,22.337 C34.066,20.237 41.103,18.802 46.707,21.340 ZM49.576,22.773 C49.623,22.913 51.131,23.821 51.447,24.082 C52.512,24.958 54.068,26.538 54.254,26.762 C55.206,27.904 55.967,29.292 56.125,29.255 C56.199,28.585 56.581,26.339 56.686,24.767 C56.686,23.309 57.034,22.319 54.940,22.212 C53.800,22.115 52.129,22.348 49.576,22.773 ZM22.695,29.379 C22.758,29.379 22.820,29.379 22.883,29.379 C23.312,28.755 25.881,24.785 29.119,23.022 C29.315,22.875 28.400,22.562 24.754,22.399 C23.851,22.393 22.777,22.394 22.384,22.898 C22.091,23.273 21.827,24.228 22.009,25.017 C21.904,24.563 22.398,27.306 22.695,29.379 ZM22.945,31.685 C27.074,33.222 28.725,33.758 28.725,33.758 C28.725,33.758 29.549,32.205 30.741,31.000 C32.048,29.678 33.735,28.694 33.735,28.694 L31.614,22.960 C31.614,22.960 25.539,25.566 22.945,31.685 ZM47.331,22.898 L45.148,28.694 C45.148,28.694 46.906,29.702 48.142,30.937 C49.430,32.225 50.200,33.742 50.200,33.742 L56.000,31.560 C56.000,31.560 54.509,28.640 52.445,26.637 C50.183,24.442 47.331,22.898 47.331,22.898 ZM35.543,49.696 C39.246,51.095 46.434,51.102 49.639,43.776 C50.565,41.658 52.164,32.057 42.778,28.943 C38.121,27.398 32.846,29.255 29.868,33.991 C26.781,39.341 29.012,47.753 35.543,49.696 ZM22.945,47.390 C22.945,47.390 24.145,49.836 26.375,52.189 C27.825,53.719 29.928,55.235 31.677,55.929 C31.853,55.482 32.989,52.490 33.735,50.195 C32.853,49.780 31.614,48.912 30.679,47.889 C29.519,46.622 28.745,45.209 28.745,45.209 L22.945,47.390 ZM50.200,45.209 C49.930,45.780 48.926,47.293 47.830,48.325 C46.567,49.514 45.210,50.195 45.210,50.195 L47.269,55.991 C47.269,55.991 50.227,54.609 52.383,52.439 C54.561,50.246 55.938,47.266 55.938,47.266 C55.938,47.266 51.105,45.429 50.200,45.209 ZM56.250,49.572 L56.062,49.572 C56.062,49.572 54.676,51.644 53.131,53.249 C51.528,54.915 49.639,56.053 49.639,56.053 C49.639,56.053 51.524,56.288 52.819,56.427 C53.768,56.529 56.072,56.733 56.561,56.053 C57.096,55.576 56.873,53.685 56.873,53.685 L56.561,51.566 L56.250,49.572 ZM22.883,49.572 C22.479,52.699 21.788,55.003 22.695,56.365 C23.953,57.050 24.946,56.982 29.369,56.178 C27.680,55.275 23.722,51.502 22.883,49.572 Z" class="cls-3"/>
</svg>
