<svg xmlns="http://www.w3.org/2000/svg" xmlns:xlink="http://www.w3.org/1999/xlink" preserveAspectRatio="xMidYMid" width="39" height="39" viewBox="0 0 39 39">
  <defs>
    <style>
      .cls-1 {
        fill: #fff;
        fill-rule: evenodd;
      }
    </style>
  </defs>
  <path d="M19.500,39.000 C8.730,39.000 -0.000,30.270 -0.000,19.500 C-0.000,8.730 8.730,-0.000 19.500,-0.000 C30.270,-0.000 39.000,8.730 39.000,19.500 C39.000,30.270 30.270,39.000 19.500,39.000 ZM29.551,11.503 C29.381,11.059 29.059,10.819 28.421,10.834 C28.336,10.902 28.189,10.901 28.082,10.946 C27.762,11.081 27.424,11.185 27.088,11.325 C26.263,11.667 25.381,11.986 24.557,12.329 C24.237,12.462 23.928,12.531 23.608,12.664 C20.794,13.833 17.855,14.816 15.043,15.988 C14.857,16.065 14.687,16.089 14.501,16.166 C13.846,16.439 13.142,16.693 12.489,16.970 C12.266,17.065 12.059,17.099 11.834,17.193 C10.837,17.607 9.781,17.985 8.783,18.398 C8.338,18.582 8.109,18.563 7.947,19.045 C7.915,19.140 7.908,19.344 7.947,19.446 C8.151,19.980 8.903,19.997 9.461,20.183 C10.357,20.481 11.323,20.708 12.218,21.008 C12.555,21.121 12.897,21.191 13.213,21.298 C13.307,21.330 13.373,21.314 13.439,21.365 C13.561,21.421 13.550,21.632 13.597,21.767 C13.731,22.155 13.840,22.563 13.981,22.971 C14.339,24.007 14.662,25.104 15.020,26.140 C15.139,26.483 15.213,26.822 15.337,27.144 C15.377,27.248 15.372,27.346 15.427,27.434 C15.622,27.744 16.151,28.017 16.625,27.768 C16.792,27.681 16.902,27.495 17.032,27.367 C17.306,27.096 17.612,26.852 17.845,26.541 C17.996,26.400 18.147,26.259 18.297,26.117 C18.546,25.872 18.772,25.604 19.020,25.359 C19.144,25.237 19.310,25.128 19.405,24.980 C19.573,25.034 19.700,25.197 19.834,25.292 C20.016,25.420 20.193,25.522 20.376,25.649 C20.485,25.724 20.584,25.841 20.693,25.917 C21.740,26.642 22.749,27.390 23.789,28.125 C24.148,28.379 24.774,29.080 25.506,28.839 C25.617,28.803 25.751,28.727 25.845,28.661 C26.150,28.445 26.203,28.018 26.320,27.612 C26.327,27.538 26.335,27.464 26.342,27.389 C26.542,26.712 26.615,25.946 26.817,25.270 C26.832,25.158 26.847,25.046 26.862,24.935 C27.195,23.807 27.294,22.558 27.630,21.432 C27.638,21.358 27.645,21.283 27.653,21.209 C27.718,20.980 27.766,20.698 27.834,20.473 C27.849,20.361 27.864,20.249 27.879,20.138 C27.983,19.773 28.042,19.341 28.150,18.978 C28.165,18.866 28.180,18.755 28.195,18.643 C28.344,18.141 28.407,17.561 28.557,17.059 C28.572,16.947 28.587,16.836 28.602,16.724 C28.802,16.048 28.875,15.281 29.077,14.605 C29.166,14.307 29.147,14.033 29.235,13.735 C29.302,13.509 29.350,13.227 29.416,12.998 C29.423,12.924 29.431,12.849 29.438,12.775 C29.505,12.550 29.559,12.268 29.619,12.039 C29.670,11.847 29.594,11.614 29.551,11.503 ZM26.478,13.913 C25.971,14.409 25.426,14.867 24.919,15.363 C22.644,17.483 20.369,19.603 18.094,21.722 C17.953,21.928 17.934,22.333 17.845,22.592 C17.652,23.158 17.497,23.788 17.303,24.355 C17.232,24.562 17.217,24.912 17.099,25.069 C17.099,25.084 17.099,25.098 17.099,25.113 C17.030,25.113 16.984,25.106 16.941,25.091 C16.817,24.537 16.602,23.984 16.422,23.462 C16.365,23.299 16.365,23.179 16.309,23.016 C16.176,22.630 16.035,22.197 15.902,21.811 C15.872,21.685 15.841,21.558 15.811,21.432 C15.728,21.190 15.660,20.907 15.563,20.651 C15.508,20.507 15.406,20.311 15.472,20.116 C15.574,19.813 15.986,19.695 16.241,19.536 C16.860,19.147 17.496,18.741 18.116,18.353 C18.245,18.273 18.371,18.233 18.501,18.152 C20.363,16.986 22.264,15.836 24.128,14.672 C24.256,14.591 24.383,14.552 24.512,14.471 C24.974,14.181 25.450,13.868 25.913,13.578 C26.112,13.454 26.431,13.330 26.591,13.177 C26.644,13.177 26.696,13.177 26.749,13.177 C26.798,13.229 26.882,13.259 26.907,13.333 C26.982,13.551 26.576,13.818 26.478,13.913 Z" class="cls-1"/>
</svg>
