<svg xmlns="http://www.w3.org/2000/svg" xmlns:xlink="http://www.w3.org/1999/xlink" preserveAspectRatio="xMidYMid" width="79" height="79" viewBox="0 0 79 79">
  <defs>
    <style>
      .cls-1 {
        fill: #f8863d;
      }

      .cls-2 {
        fill: #d26e2e;
      }

      .cls-2, .cls-3 {
        fill-rule: evenodd;
      }

      .cls-3 {
        fill: #fff;
      }
    </style>
  </defs>
  <circle cx="39.5" cy="39.5" r="39.5" class="cls-1"/>
  <path d="M45.000,24.000 L78.000,50.000 C78.000,50.000 75.062,57.419 70.000,64.000 C65.064,70.417 57.000,75.000 57.000,75.000 L31.000,57.000 L24.000,43.000 C24.000,43.000 23.597,41.777 24.000,37.000 C24.070,36.170 26.440,32.724 30.000,32.000 C32.499,31.492 35.961,33.776 38.000,33.000 C40.960,31.874 41.000,29.000 41.000,29.000 L33.000,25.000 L40.000,28.000 L45.000,24.000 Z" class="cls-2"/>
  <path d="M39.503,31.888 C39.544,31.929 42.406,31.598 44.940,31.486 C46.195,31.486 48.409,31.499 49.818,32.039 C54.296,33.711 55.977,38.288 55.306,36.812 C56.433,39.292 55.874,42.309 55.763,42.891 C54.744,46.607 52.620,50.070 51.597,51.784 C50.672,53.333 50.291,53.984 50.072,54.246 C49.578,54.972 48.494,55.760 47.430,56.206 C45.616,56.966 41.688,56.607 41.688,56.607 C41.688,56.607 40.007,56.356 39.046,56.356 C39.224,56.356 37.638,56.362 36.709,56.607 C35.333,56.971 32.645,57.226 31.119,56.708 C28.171,55.702 26.902,52.839 26.902,52.839 C26.902,52.839 25.469,50.320 24.717,48.971 C24.312,48.243 19.990,41.373 23.142,36.209 C24.952,33.803 27.207,31.801 34.371,31.989 C35.367,31.995 37.403,32.077 38.538,31.989 C38.556,31.566 39.401,29.061 39.554,28.773 C39.620,28.711 39.489,28.777 39.300,28.924 C39.085,29.092 38.789,29.358 38.538,29.527 C38.107,29.922 37.198,30.440 35.142,30.160 C32.622,29.572 30.558,28.424 27.867,29.527 C27.867,29.184 28.426,28.480 29.036,27.668 C30.309,25.973 34.271,24.266 37.217,25.507 C37.960,25.820 38.758,26.392 39.198,27.015 C39.349,27.228 39.746,28.142 39.910,28.220 C39.996,27.859 41.094,26.237 41.790,25.608 C42.436,25.024 43.194,24.476 43.619,24.251 C44.617,23.715 45.340,24.069 44.890,25.005 C42.104,26.603 40.072,28.884 39.503,31.888 ZM47.024,32.642 C47.005,32.557 46.597,32.553 46.160,32.591 C45.556,32.677 45.153,32.799 44.686,32.993 C41.149,34.707 40.612,34.539 40.367,34.601 C39.800,34.746 38.801,34.769 37.979,34.651 C35.957,34.150 34.432,33.227 32.339,33.194 C32.198,33.370 33.373,33.114 35.591,34.601 C38.646,36.520 40.750,35.563 40.621,35.606 C41.757,35.224 42.718,34.681 43.670,34.099 C44.440,33.628 45.892,32.660 47.024,32.642 ZM27.308,34.551 C26.294,34.990 25.176,35.921 24.615,36.812 C23.834,38.051 23.332,40.868 23.904,42.791 C24.821,46.430 28.107,52.079 27.867,51.583 C28.038,51.583 28.035,51.818 27.664,50.076 C26.489,44.557 28.179,41.360 28.020,41.736 C28.544,40.497 29.460,38.329 32.999,36.008 C32.881,35.776 32.528,35.362 32.440,35.305 C30.177,33.064 26.929,34.715 27.308,34.551 Z" class="cls-3"/>
</svg>
