<svg xmlns="http://www.w3.org/2000/svg" xmlns:xlink="http://www.w3.org/1999/xlink" preserveAspectRatio="xMidYMid" width="107" height="107" viewBox="0 0 107 107">
  <defs>
    <style>
      .cls-1 {
        fill: #f8863d;
      }

      .cls-2 {
        fill: #db793a;
      }

      .cls-2, .cls-3 {
        fill-rule: evenodd;
      }

      .cls-3 {
        fill: #fff;
      }
    </style>
  </defs>
  <circle cx="53.5" cy="53.5" r="53.5" class="cls-1"/>
  <path d="M79.000,68.555 L78.560,70.461 L75.451,70.461 L74.131,76.361 L77.240,76.361 L76.800,78.267 L73.691,78.267 L72.612,82.997 L70.043,82.997 L74.401,64.005 L76.913,64.005 L75.891,68.555 L79.000,68.555 ZM71.888,70.461 L69.390,70.461 L68.070,76.361 L70.582,76.361 L70.142,78.267 L67.630,78.267 L66.565,82.997 L64.039,82.997 L65.118,78.267 L61.995,78.267 L62.435,76.361 L65.558,76.361 L66.864,70.461 L63.755,70.461 L64.195,68.555 L67.304,68.555 L68.340,64.005 L70.852,64.005 L69.830,68.555 L72.328,68.555 L71.888,70.461 ZM68.913,45.323 L61.232,45.323 L57.971,60.227 L65.651,60.227 L64.564,65.042 L56.884,65.042 L54.219,76.993 L47.871,76.993 L58.637,29.014 L64.845,29.014 L62.320,40.508 L70.000,40.508 L68.913,45.323 ZM52.430,45.323 L46.258,45.323 L42.997,60.227 L49.204,60.227 L48.117,65.042 L41.909,65.042 L39.279,76.993 L33.037,76.993 L35.702,65.042 L27.987,65.042 L29.074,60.227 L36.789,60.227 L40.016,45.323 L32.336,45.323 L33.423,40.508 L41.103,40.508 L43.663,29.014 L49.870,29.014 L47.345,40.508 L53.517,40.508 L52.430,45.323 Z" class="cls-2"/>
  <path d="M40.103,37.508 L32.423,37.508 L31.336,42.323 L39.016,42.323 L35.789,57.227 L28.074,57.227 L26.987,62.042 L34.702,62.042 L32.037,73.993 L38.279,73.993 L40.909,62.042 L47.117,62.042 L48.204,57.227 L41.997,57.227 L45.258,42.323 L51.430,42.323 L52.517,37.508 L46.345,37.508 L48.870,26.014 L42.663,26.014 L40.103,37.508 ZM46.871,73.993 L53.219,73.993 L55.884,62.042 L63.564,62.042 L64.651,57.227 L56.971,57.227 L60.232,42.323 L67.913,42.323 L69.000,37.508 L61.320,37.508 L63.845,26.014 L57.637,26.014 L46.871,73.993 Z" class="cls-3"/>
  <path d="M65.304,66.555 L62.195,66.555 L61.755,68.461 L64.863,68.461 L63.558,74.361 L60.435,74.361 L59.995,76.267 L63.118,76.267 L62.039,80.997 L64.565,80.997 L65.630,76.267 L68.142,76.267 L68.582,74.361 L66.070,74.361 L67.390,68.461 L69.888,68.461 L70.328,66.555 L67.830,66.555 L68.852,62.005 L66.340,62.005 L65.304,66.555 ZM68.043,80.997 L70.612,80.997 L71.691,76.267 L74.800,76.267 L75.240,74.361 L72.131,74.361 L73.451,68.461 L76.560,68.461 L77.000,66.555 L73.891,66.555 L74.913,62.005 L72.401,62.005 L68.043,80.997 Z" class="cls-3"/>
</svg>
