<svg xmlns="http://www.w3.org/2000/svg" xmlns:xlink="http://www.w3.org/1999/xlink" preserveAspectRatio="xMidYMid" width="39" height="39" viewBox="0 0 39 39">
  <defs>
    <style>
      .cls-1 {
        fill: #fff;
        fill-rule: evenodd;
      }
    </style>
  </defs>
  <path d="M19.500,39.000 C8.730,39.000 -0.000,30.270 -0.000,19.500 C-0.000,8.730 8.730,-0.000 19.500,-0.000 C30.270,-0.000 39.000,8.730 39.000,19.500 C39.000,30.270 30.270,39.000 19.500,39.000 ZM27.685,10.454 C26.831,9.938 24.787,10.157 23.239,10.157 C20.703,10.157 18.167,10.157 15.631,10.157 C14.525,10.158 12.849,10.293 12.075,10.157 C11.483,10.701 10.743,10.731 10.395,11.542 C10.016,12.427 10.197,14.015 10.198,15.203 C10.198,17.742 10.198,20.281 10.198,22.820 C10.197,24.299 9.864,26.787 10.494,27.767 C11.332,29.069 12.950,28.855 15.039,28.855 C17.904,28.855 20.769,28.855 23.634,28.855 C25.392,28.855 27.002,29.083 27.981,28.360 C29.093,27.540 28.871,25.810 28.870,23.810 C28.870,20.908 28.870,18.005 28.870,15.104 C28.870,12.884 29.050,11.279 27.685,10.454 ZM22.547,17.280 C22.481,18.006 22.416,18.731 22.350,19.457 C21.724,19.457 21.098,19.457 20.473,19.457 C20.473,21.666 20.473,23.876 20.473,26.085 C19.616,26.085 18.760,26.085 17.904,26.085 C17.904,23.876 17.904,21.666 17.904,19.457 C17.443,19.457 16.982,19.457 16.521,19.457 C16.521,18.731 16.521,18.006 16.521,17.280 C16.999,17.287 17.572,17.298 17.904,17.181 C17.895,15.911 17.742,14.606 18.200,13.917 C18.346,13.697 18.636,13.564 18.793,13.323 C19.907,13.058 20.863,12.896 22.547,12.927 C22.547,13.686 22.547,14.444 22.547,15.203 C21.922,15.186 20.995,15.096 20.670,15.401 C20.599,15.478 20.543,15.620 20.473,15.697 C20.466,16.229 20.439,16.900 20.571,17.280 C21.230,17.280 21.889,17.280 22.547,17.280 Z" class="cls-1"/>
</svg>
