<svg xmlns="http://www.w3.org/2000/svg" xmlns:xlink="http://www.w3.org/1999/xlink" preserveAspectRatio="xMidYMid" width="39" height="39" viewBox="0 0 39 39">
  <defs>
    <style>
      .cls-1 {
        fill: #fff;
        fill-rule: evenodd;
      }
    </style>
  </defs>
  <path d="M19.500,39.000 C8.730,39.000 -0.000,30.270 -0.000,19.500 C-0.000,8.730 8.730,-0.000 19.500,-0.000 C30.270,-0.000 39.000,8.730 39.000,19.500 C39.000,30.270 30.270,39.000 19.500,39.000 ZM28.960,11.654 C28.953,11.492 28.940,11.334 28.896,11.202 C28.791,10.890 28.576,10.534 28.333,10.356 C27.777,9.946 27.289,10.003 26.341,10.003 C24.587,10.003 17.244,10.003 11.342,10.003 C11.226,10.093 10.982,10.110 10.850,10.191 C10.591,10.351 10.171,10.896 10.171,10.896 C10.171,10.896 10.035,11.273 10.030,11.649 C9.996,14.277 9.996,24.775 10.007,27.448 C10.008,27.834 10.241,28.201 10.241,28.201 C10.241,28.201 10.873,28.852 11.342,28.976 C14.602,28.976 23.504,28.976 26.622,28.976 C26.955,28.976 27.413,29.042 27.700,28.953 C27.933,28.881 28.153,28.756 28.333,28.624 C28.579,28.443 28.896,27.777 28.896,27.777 C28.896,27.777 28.943,13.741 28.960,11.654 C28.961,11.668 28.965,11.679 28.965,11.693 C28.966,11.838 28.966,12.021 28.966,12.284 C28.966,12.087 28.972,11.885 28.965,11.693 C28.965,11.301 28.963,11.318 28.960,11.654 ZM26.037,26.908 C25.439,26.907 24.062,27.039 23.834,26.696 C23.745,26.563 23.763,26.326 23.763,26.108 C23.763,24.102 23.730,21.715 23.728,21.054 C23.732,21.070 23.736,21.084 23.740,21.100 C23.730,20.798 23.727,20.819 23.728,21.054 C23.583,20.473 23.435,19.991 22.990,19.713 C22.564,19.447 21.727,19.447 21.303,19.713 C21.144,19.812 21.013,19.961 20.904,20.113 C20.605,20.528 20.532,20.850 20.389,21.429 C20.389,21.023 20.342,26.672 20.342,26.672 C20.342,26.672 20.193,26.842 20.084,26.884 C19.936,26.941 19.684,26.908 19.498,26.908 C19.068,26.908 18.639,26.908 18.209,26.908 C17.871,26.907 17.507,26.938 17.365,26.743 C17.358,26.732 17.272,26.555 17.272,26.555 C17.272,26.555 17.272,20.365 17.272,17.315 C17.349,17.049 17.499,17.008 17.670,16.962 C18.533,16.962 20.002,16.954 20.084,16.986 C20.300,17.020 20.353,17.243 20.389,17.338 C20.389,17.628 20.389,17.918 20.389,18.208 C20.396,18.208 20.404,18.208 20.412,18.208 C20.384,18.303 20.612,17.370 22.146,16.939 C21.843,16.983 23.637,16.526 24.958,17.103 C25.829,17.484 26.374,18.226 26.669,19.172 C26.918,19.780 26.927,21.077 26.927,21.077 C26.927,21.077 26.951,23.092 26.951,25.802 C26.951,26.211 27.008,26.673 26.763,26.837 C26.608,26.941 26.286,26.908 26.037,26.908 ZM14.553,16.116 C14.264,16.188 12.826,16.091 12.350,14.658 C12.370,14.718 12.190,13.893 12.397,13.389 C12.616,12.856 13.021,12.438 13.545,12.213 C12.717,12.569 15.217,11.105 16.170,13.342 C16.558,14.252 16.134,14.970 16.147,14.940 C15.865,15.584 15.303,15.929 14.553,16.116 ZM13.077,16.986 C13.122,16.967 13.142,16.985 13.170,16.962 C14.559,16.962 15.563,16.805 15.772,17.174 C15.877,17.323 15.865,17.577 15.865,17.832 C15.865,19.458 15.865,24.316 15.865,25.991 C15.865,26.210 15.897,26.503 15.795,26.625 C15.700,26.923 15.325,26.908 14.928,26.908 C14.342,26.908 13.756,26.908 13.170,26.908 C13.017,26.867 12.819,26.696 12.819,26.696 L12.725,26.437 C12.725,26.437 12.705,17.306 12.772,17.268 C12.877,17.048 12.960,17.035 13.077,16.986 Z" class="cls-1"/>
</svg>
