<svg xmlns="http://www.w3.org/2000/svg" xmlns:xlink="http://www.w3.org/1999/xlink" preserveAspectRatio="xMidYMid" width="107" height="107" viewBox="0 0 107 107">
  <defs>
    <style>
      .cls-1 {
        fill: #f8863d;
      }

      .cls-2 {
        fill: #fff;
      }

      .cls-2, .cls-3 {
        fill-rule: evenodd;
      }

      .cls-3 {
        fill: #00f0d7;
      }
    </style>
  </defs>
  <circle cx="53.5" cy="53.5" r="53.5" class="cls-1"/>
  <path d="M62.058,51.490 C60.142,51.490 58.966,52.221 58.966,53.596 C58.966,57.076 69.986,56.088 69.986,63.264 C69.986,67.131 66.675,70.010 61.579,70.010 C58.487,70.010 55.176,68.979 52.868,66.788 L55.351,63.178 C57.006,64.682 59.445,65.584 61.666,65.584 C63.626,65.584 64.759,64.768 64.759,63.393 C64.759,59.955 53.739,60.815 53.739,53.639 C53.739,49.342 57.572,47.064 62.233,47.064 C64.890,47.064 67.677,47.795 69.724,49.557 L67.677,53.381 C66.370,52.264 64.018,51.490 62.058,51.490 ZM40.939,58.967 L34.623,58.967 L34.623,69.495 L29.005,69.495 L29.005,38.986 L40.939,38.986 C46.732,38.986 50.783,42.982 50.783,48.912 C50.783,54.842 46.732,58.967 40.939,58.967 ZM39.981,43.756 L34.623,43.756 L34.623,54.154 L39.894,54.154 C43.161,54.154 45.077,52.092 45.077,48.912 C45.077,45.775 43.161,43.756 39.981,43.756 Z" class="cls-2"/>
  <path d="M105.403,39.925 L52.701,39.925 L52.701,69.470 L104.604,69.470 L104.604,70.269 L52.701,70.269 L52.701,107.000 L51.903,107.000 L51.903,70.269 L29.545,70.269 L29.545,101.410 L28.746,101.410 L28.746,70.269 L2.396,70.269 L2.396,69.470 L28.746,69.470 L28.746,39.925 L1.597,39.925 L2.396,39.127 L28.746,39.127 L28.746,5.590 L29.545,5.590 L29.545,39.127 L51.903,39.127 L51.903,-0.000 L52.701,-0.000 L52.701,39.127 L104.604,39.127 L105.403,39.925 ZM29.545,39.925 L29.545,69.470 L51.903,69.470 L51.903,39.925 L29.545,39.925 Z" class="cls-3"/>
</svg>
